<?xml version="1.0" encoding="UTF-8"?>
<svg width="163px" height="163px" viewBox="0 0 163 163" version="1.1" xmlns="http://www.w3.org/2000/svg" xmlns:xlink="http://www.w3.org/1999/xlink">
    <!-- Generator: Sketch 59.1 (86144) - https://sketch.com -->
    <title>SRC Light Strip</title>
    <desc>Created with Sketch.</desc>
    <defs>
        <polygon id="path-1" points="0 103.696 161 103.696 161 0 0 0"></polygon>
    </defs>
    <g id="SRC-Light-Strip" stroke="none" stroke-width="1" fill="none" fill-rule="evenodd">
        <g id="Group-26" transform="translate(1.000000, 30.000000)">
            <path d="M113.6611,26.3417 L116.6641,6.0987 C116.9571,4.1297 118.7901,2.7697 120.7601,3.0617 C122.7291,3.3537 124.0891,5.1877 123.7961,7.1567 C123.7631,7.3847 123.7011,7.6237 123.6281,7.8337 L116.7831,27.1197 C116.4851,27.9607 115.5601,28.4007 114.7191,28.1017 C113.9781,27.8397 113.5491,27.0907 113.6611,26.3417" id="Fill-1" fill="#000000"></path>
            <path d="M44.585,27.1196 L37.741,7.8336 C37.075,5.9566 38.056,3.8966 39.932,3.2306 C41.809,2.5646 43.869,3.5456 44.535,5.4216 C44.612,5.6396 44.67,5.8786 44.704,6.0986 L47.708,26.3416 C47.838,27.2246 47.229,28.0466 46.346,28.1776 C45.568,28.2926 44.838,27.8336 44.585,27.1196" id="Fill-3" fill="#000000"></path>
            <path d="M78.8916,23.7529 L76.6346,4.0169 C76.4086,2.0379 77.8296,0.2509 79.8076,0.0239 C81.7866,-0.2021 83.5736,1.2189 83.7996,3.1969 C83.8266,3.4339 83.8286,3.6869 83.8096,3.9159 L82.1086,23.7079 C82.0326,24.5979 81.2486,25.2569 80.3596,25.1799 C79.5786,25.1129 78.9766,24.5029 78.8916,23.7529" id="Fill-5" fill="#000000"></path>
            <path d="M47.7075,77.3549 L44.7035,97.5979 C44.4115,99.5669 42.5785,100.9269 40.6085,100.6349 C38.6395,100.3429 37.2795,98.5089 37.5725,96.5399 C37.6055,96.3119 37.6675,96.0729 37.7405,95.8629 L44.5845,76.5769 C44.8835,75.7359 45.8075,75.2959 46.6485,75.5949 C47.3895,75.8569 47.8185,76.6059 47.7075,77.3549" id="Fill-7" fill="#000000"></path>
            <path d="M116.7832,76.5771 L123.6282,95.8631 C124.2942,97.7391 123.3122,99.8001 121.4362,100.4661 C119.5602,101.1321 117.4992,100.1511 116.8332,98.2741 C116.7562,98.0571 116.6992,97.8181 116.6642,97.5981 L113.6612,77.3551 C113.5302,76.4721 114.1392,75.6501 115.0232,75.5191 C115.8002,75.4031 116.5302,75.8631 116.7832,76.5771" id="Fill-9" fill="#000000"></path>
            <path d="M82.4771,79.9433 L84.7341,99.6803 C84.9601,101.6583 83.5391,103.4463 81.5611,103.6723 C79.5821,103.8983 77.7951,102.4783 77.5691,100.4993 C77.5411,100.2633 77.5401,100.0093 77.5591,99.7803 L79.2601,79.9883 C79.3361,79.0993 80.1201,78.4403 81.0091,78.5163 C81.7891,78.5833 82.3921,79.1943 82.4771,79.9433" id="Fill-11" fill="#000000"></path>
            <line x1="3" y1="36.3915" x2="158" y2="36.3915" id="Stroke-13" stroke="#000000" stroke-width="6" stroke-linecap="round" stroke-linejoin="round"></line>
            <line x1="3" y1="64.3915" x2="158" y2="64.3915" id="Stroke-15" stroke="#000000" stroke-width="6" stroke-linecap="round" stroke-linejoin="round"></line>
            <mask id="mask-2" fill="white">
                <use xlink:href="#path-1"></use>
            </mask>
            <g id="Clip-18"></g>
            <polygon id="Stroke-17" stroke="#000000" stroke-width="3.5" stroke-linecap="round" stroke-linejoin="round" mask="url(#mask-2)" points="8 55.392 18 55.392 18 45.392 8 45.392"></polygon>
            <polygon id="Stroke-19" stroke="#000000" stroke-width="3.5" stroke-linecap="round" stroke-linejoin="round" mask="url(#mask-2)" points="27 55.392 37 55.392 37 45.392 27 45.392"></polygon>
            <polygon id="Stroke-20" stroke="#000000" stroke-width="3.5" stroke-linecap="round" stroke-linejoin="round" mask="url(#mask-2)" points="46 55.392 56 55.392 56 45.392 46 45.392"></polygon>
            <polygon id="Stroke-21" stroke="#000000" stroke-width="3.5" stroke-linecap="round" stroke-linejoin="round" mask="url(#mask-2)" points="65 55.392 75 55.392 75 45.392 65 45.392"></polygon>
            <polygon id="Stroke-22" stroke="#000000" stroke-width="3.5" stroke-linecap="round" stroke-linejoin="round" mask="url(#mask-2)" points="84 55.392 94 55.392 94 45.392 84 45.392"></polygon>
            <polygon id="Stroke-23" stroke="#000000" stroke-width="3.5" stroke-linecap="round" stroke-linejoin="round" mask="url(#mask-2)" points="103 55.392 113 55.392 113 45.392 103 45.392"></polygon>
            <polygon id="Stroke-24" stroke="#000000" stroke-width="3.5" stroke-linecap="round" stroke-linejoin="round" mask="url(#mask-2)" points="122 55.392 132 55.392 132 45.392 122 45.392"></polygon>
            <polygon id="Stroke-25" stroke="#000000" stroke-width="3.5" stroke-linecap="round" stroke-linejoin="round" mask="url(#mask-2)" points="141 55.392 151 55.392 151 45.392 141 45.392"></polygon>
        </g>
    </g>
</svg>