<?xml version="1.0" encoding="UTF-8"?>
<svg width="415px" height="415px" viewBox="0 0 415 415" version="1.1" xmlns="http://www.w3.org/2000/svg" xmlns:xlink="http://www.w3.org/1999/xlink">
    <title>images / slc_app_icon_black_large</title>
    <g id="images-/-slc_app_icon_black_large" stroke="none" stroke-width="1" fill="none" fill-rule="evenodd">
        <path d="M2,163.798817 L119.550639,219.93632 C129.68575,225.66527 136.949881,231.556328 141.339567,237.606044 C145.722317,243.669557 147.91716,252.564778 147.91716,264.295157 C147.91716,286.314192 137.390237,301.528159 116.336391,309.964651 C112.241432,311.41672 107.855214,312.147929 103.177737,312.147929 L46.7394224,312.147929 C27.6377036,312.147929 13.4527096,301.86962 4.19137526,281.313002 C2.73161421,276.370445 2,271.810739 2,267.640781 L2,252.809664 L31.8262816,252.809664 L31.8262816,264.878054 C31.8262816,273.41112 35.7236009,279.084885 43.5251742,281.89245 C45.4703665,282.289096 64.4299233,282.475347 100.400377,282.475347 C108.000843,282.475347 113.312848,279.378058 116.336391,273.169683 C117.116548,270.744968 117.504893,269.0963 117.504893,268.223678 L117.504893,258.331668 C116.138751,253.292537 106.197813,246.504714 87.6786117,237.971648 L2,196.375538 L2,163.798817 Z M296.885604,195.414201 L296.885604,265.752691 C296.885604,274.606849 301.506349,279.904121 310.75823,281.654884 L310.75823,281.654884 L369.328074,281.654884 C378.185079,279.41972 382.618777,275.04627 382.618777,268.524156 L382.618777,268.524156 L382.618777,251.891901 L413,251.891901 L413,261.815202 C413,286.810295 401.212598,303.01005 377.648186,310.400625 C373.269909,311.566648 368.302781,312.147929 362.753731,312.147929 L362.753731,312.147929 L315.721893,312.147929 C292.448443,312.147929 276.771163,300.722985 268.69352,277.862716 C267.61627,273.485807 267.08284,269.451438 267.08284,265.752691 L267.08284,265.752691 L267.08284,221.364256 L296.885604,195.414201 Z M187.636045,103 L187.636045,265.767844 C187.636045,273.256314 191.310841,278.410041 198.660432,281.229026 L198.660432,281.229026 L202.04236,281.810117 L254.79346,281.810117 L281.674556,312.147929 L207.042035,312.147929 C175.579647,309.425793 159.116283,294.552621 157.64497,267.518036 L157.64497,267.518036 L157.64497,103 L187.636045,103 Z M366.550085,103 C387.58244,103 402.338342,114.092746 410.810862,136.281716 L410.810862,136.281716 L413,153.585008 L413,161.356885 C413,161.850669 412.463107,162.382704 411.392784,162.970376 L411.392784,162.970376 L384.225992,162.970376 C383.737593,162.970376 383.204164,162.434864 382.618777,161.356885 L382.618777,161.356885 L382.618777,146.83895 C380.866081,137.658746 375.507541,133.054735 366.550085,133.054735 L366.550085,133.054735 L311.929003,133.054735 C303.359496,133.054735 298.343875,138.580244 296.885604,149.627784 L296.885604,149.627784 L296.885604,189.61383 L267.08284,214.869822 L267.08284,149.040112 C267.08284,128.902779 277.79992,114.290955 299.223687,105.197685 C304.183887,103.733721 308.763066,103 312.950832,103 L312.950832,103 Z M94.3665622,103 C117.032566,103 132.307031,110.284776 140.183035,124.854329 C145.339118,131.793554 147.91716,141.412561 147.91716,153.700773 L147.91716,164.405797 L117.565477,164.405797 L117.565477,148.644447 C115.423453,138.831508 110.609955,133.926801 103.121523,133.926801 L47.8199329,133.926801 C39.9370081,133.926801 34.7809248,138.041677 32.3516828,146.267903 C32.0575438,148.249532 31.9122045,150.132431 31.9122045,151.916602 L31.9122045,171.094675 L2,156.972928 L2,149.088727 C2,129.663832 12.1149206,115.245899 32.3516828,105.824349 L55.5505976,103 L94.3665622,103 Z" id="Combined-Shape" fill="#000000"></path>
    </g>
</svg>