<?xml version="1.0" encoding="UTF-8"?>
<svg width="152px" height="152px" viewBox="0 0 152 152" version="1.1" xmlns="http://www.w3.org/2000/svg" xmlns:xlink="http://www.w3.org/1999/xlink">
    <!-- Generator: Sketch 59.1 (86144) - https://sketch.com -->
    <title>SRC Light</title>
    <desc>Created with Sketch.</desc>
    <defs>
        <polygon id="path-1" points="0 0.088574267 23.6443773 0.088574267 23.6443773 6.72086356 0 6.72086356"></polygon>
    </defs>
    <g id="SRC-Light" stroke="none" stroke-width="1" fill="none" fill-rule="evenodd">
        <g id="Group-28" transform="translate(1.000000, 15.000000)">
            <path d="M115.4964,44.7804 C115.4284,47.6564 114.6964,50.4264 113.6594,52.8434 C112.6064,55.2604 111.2904,57.3734 109.9404,59.3364 C107.2054,63.2384 104.3634,66.6484 101.7644,70.1034 C99.1764,73.5554 96.9194,77.1104 95.3074,80.9304 C93.6054,84.7204 92.7264,88.8064 92.4034,93.0154 C92.4034,94.2854 91.3744,95.3154 90.1034,95.3154 L60.2304,95.3154 C58.9864,95.3154 57.9734,94.3264 57.9334,93.0924 L57.9314,93.0154 C57.8294,89.7394 57.3044,86.5104 56.3324,83.4154 C55.3464,80.3214 53.9434,77.3634 52.2244,74.5374 C50.5084,71.7084 48.5204,68.9934 46.4284,66.2574 C44.3404,63.5124 42.1264,60.7604 40.1084,57.6294 C39.1034,56.0624 38.1494,54.3954 37.3644,52.5624 C36.5794,50.7354 35.9824,48.7184 35.7444,46.6024 C35.6834,46.0754 35.6664,45.5394 35.6324,45.0074 C35.6084,44.4824 35.6344,44.0414 35.6334,43.5544 C35.6234,42.6014 35.7194,41.6504 35.7764,40.6974 C35.9684,38.7984 36.2674,36.9054 36.7124,35.0434 C38.4964,27.5904 42.5234,20.6834 48.1354,15.4154 C53.7274,10.1284 60.9164,6.4894 68.5604,5.1584 C76.1854,3.8004 84.2224,4.7124 91.3904,7.8014 C98.5554,10.8674 104.8204,16.0634 109.0644,22.6314 C113.3884,29.1504 115.5664,37.0234 115.4964,44.7804 M106.9984,44.7804 C106.9424,38.6114 105.0054,32.5844 101.6734,27.4684 C98.3084,22.3784 93.5244,18.1914 87.9314,15.6764 C82.3564,13.1384 76.0044,12.3204 69.8984,13.2324 C63.7964,14.1394 57.9664,16.8954 53.3344,21.0604 C48.6904,25.2104 45.2694,30.7414 43.6614,36.7974 C43.2604,38.3124 42.9784,39.8574 42.7794,41.4154 C42.7194,42.1984 42.6114,42.9794 42.5984,43.7674 C42.5864,44.1494 42.5524,44.5784 42.5584,44.9234 C42.5734,45.2594 42.5614,45.5954 42.5864,45.9334 C42.7594,48.6344 43.9644,51.4514 45.6134,54.2384 C48.9334,59.8294 53.6544,65.3084 57.0954,71.7574 C58.8414,74.9664 60.2844,78.4104 61.2374,82.0054 C62.1804,85.6024 62.5994,89.3334 62.5304,93.0154 L60.2304,90.7164 L90.1034,90.7164 L87.8044,93.0154 C87.5334,88.2804 88.1774,83.4074 89.6714,78.8294 C91.1834,74.2524 93.4754,70.0184 95.9624,66.1124 C98.4184,62.1824 101.2074,58.6174 103.4044,55.0484 C104.5014,53.2714 105.4554,51.5024 106.1004,49.7754 C106.7294,48.0464 107.0384,46.3854 106.9984,44.7804" id="Fill-1" fill="#000000"></path>
            <path d="M90.0525,95.524 L59.5105,95.524 C57.9275,95.524 56.6445,94.241 56.6445,92.659 L56.6445,91.829 C56.6445,90.247 57.9275,88.964 59.5105,88.964 L90.0525,88.964 C91.6355,88.964 92.9175,90.247 92.9175,91.829 L92.9175,92.659 C92.9175,94.241 91.6355,95.524 90.0525,95.524" id="Fill-3" fill="#1D1E1C"></path>
            <path d="M90.2454,104.2066 L59.7034,104.2066 C58.1204,104.2066 56.8374,102.9236 56.8374,101.3416 L56.8374,100.5116 C56.8374,98.9296 58.1204,97.6466 59.7034,97.6466 L90.2454,97.6466 C91.8284,97.6466 93.1104,98.9296 93.1104,100.5116 L93.1104,101.3416 C93.1104,102.9236 91.8284,104.2066 90.2454,104.2066" id="Fill-5" fill="#1D1E1C"></path>
            <path d="M90.4388,112.8888 L59.8958,112.8888 C58.3138,112.8888 57.0308,111.6058 57.0308,110.0238 L57.0308,109.1938 C57.0308,107.6118 58.3138,106.3288 59.8958,106.3288 L90.4388,106.3288 C92.0208,106.3288 93.3038,107.6118 93.3038,109.1938 L93.3038,110.0238 C93.3038,111.6058 92.0208,112.8888 90.4388,112.8888" id="Fill-7" fill="#1D1E1C"></path>
            <path d="M80.3391,122.15 L69.2231,122.15 C65.6861,122.15 62.8191,119.283 62.8191,115.745 L62.8191,114.818 L86.7441,114.818 L86.7441,115.745 C86.7441,119.283 83.8761,122.15 80.3391,122.15" id="Fill-9" fill="#1D1E1C"></path>
            <path d="M72.6414,19.7032 C75.7364,19.4552 78.7714,19.9512 81.6254,20.9462 C84.4824,21.9422 87.1434,23.5062 89.4694,25.4952 C91.7974,27.4822 93.7624,29.9322 95.2064,32.6482 C96.6664,35.3612 97.6314,38.2992 98.2334,41.2812 C98.5864,43.0262 97.4574,44.7262 95.7134,45.0782 C93.9684,45.4312 92.2674,44.3032 91.9154,42.5572 C91.8994,42.4802 91.8874,42.4032 91.8774,42.3262 L91.8664,42.2412 C91.5644,39.8162 90.9884,37.4452 90.0204,35.2372 C89.0644,33.0252 87.6924,31.0012 85.9764,29.2852 C84.2664,27.5692 82.2254,26.1302 79.9694,25.1412 C77.7234,24.1492 75.2664,23.5662 72.8774,23.5632 L72.7934,23.5632 C71.7254,23.5622 70.8614,22.6962 70.8623991,21.6282 C70.8634,20.6152 71.6504,19.7852 72.6414,19.7032" id="Fill-11" fill="#1D1E1C"></path>
            <path d="M98.0179,49.2833 C99.0599,50.8873 98.6039,53.0313 96.9999,54.0733 C95.3969,55.1153 93.2519,54.6593 92.2099,53.0563 C91.1679,51.4523 91.6239,49.3073 93.2269,48.2653 C94.8309,47.2243 96.9759,47.6793 98.0179,49.2833" id="Fill-13" fill="#1D1E1C"></path>
            <path d="M119.0364,64.2911 L137.6574,67.0541 C139.4694,67.3231 140.7194,69.0091 140.4514,70.8211 C140.1824,72.6321 138.4954,73.8831 136.6834,73.6141 C136.4744,73.5831 136.2554,73.5261 136.0614,73.4591 L118.3214,67.1631 C117.5474,66.8891 117.1424,66.0391 117.4174,65.2651 C117.6594,64.5831 118.3474,64.1881 119.0364,64.2911" id="Fill-15" fill="#000000"></path>
            <path d="M127.5066,39.735 L146.0136,36.295 C147.8146,35.96 149.5456,37.148 149.8806,38.949 C150.2146,40.749 149.0266,42.48 147.2266,42.815 C147.0176,42.854 146.7916,42.871 146.5876,42.871 L127.7636,42.684 C126.9426,42.675 126.2836,42.003 126.291528,41.182 C126.2986,40.459 126.8216,39.862 127.5066,39.735" id="Fill-17" fill="#000000"></path>
            <g id="Group-21" transform="translate(0.000000, 36.150000)">
                <mask id="mask-2" fill="white">
                    <use xlink:href="#path-1"></use>
                </mask>
                <g id="Clip-20"></g>
                <path d="M22.1721,6.5337 L3.3481,6.7207 C1.5171,6.7387 0.0181,5.2687 -6.3666564e-05,3.4377 C-0.0179,1.6067 1.4511,0.1067 3.2821,0.0887 C3.4951,0.0867 3.7201,0.1087 3.9221,0.1447 L22.4291,3.5847 C23.2361,3.7357 23.7691,4.5117 23.6191,5.3187 C23.4871,6.0297 22.8691,6.5277 22.1721,6.5337" id="Fill-19" fill="#000000" mask="url(#mask-2)"></path>
            </g>
            <path d="M121.8367,15.4762 L134.0637,1.1632 C135.2537,-0.2298 137.3467,-0.3948 138.7387,0.7952 C140.1307,1.9852 140.2957,4.0782 139.1067,5.4702 C138.9687,5.6312 138.8037,5.7872 138.6447,5.9152 L123.8907,17.6072 C123.2477,18.1172 122.3117,18.0092 121.8017,17.3652 C121.3527,16.7982 121.3837,16.0052 121.8367,15.4762" id="Fill-22" fill="#000000"></path>
            <path d="M27.7024,17.607 L12.9494,5.916 C11.5134,4.778 11.2714,2.692 12.4094,1.257 C13.5464,-0.178 15.6324,-0.42 17.0674,0.718 C17.2344,0.849 17.3954,1.008 17.5294,1.163 L29.7564,15.476 C30.2894,16.101 30.2164,17.039 29.5924,17.572 C29.0424,18.042 28.2484,18.04 27.7024,17.607" id="Fill-24" fill="#000000"></path>
            <path d="M28.6731,67.1632 L10.9321,73.4592 C9.2061,74.0722 7.3111,73.1692 6.6981,71.4432 C6.0861,69.7172 6.9881,67.8222 8.7141,67.2092 C8.9141,67.1382 9.1341,67.0852 9.3371,67.0542 L27.9571,64.2912 C28.7701,64.1712 29.5261,64.7312 29.6461,65.5442 C29.7521,66.2592 29.3301,66.9312 28.6731,67.1632" id="Fill-26" fill="#000000"></path>
        </g>
    </g>
</svg>